<?xml version="1.0" encoding="utf-8"?>
<!-- Generator: Adobe Illustrator 24.0.2, SVG Export Plug-In . SVG Version: 6.00 Build 0) -->
<svg version="1.1" id="Layer_1" xmlns="http://www.w3.org/2000/svg" xmlns:xlink="http://www.w3.org/1999/xlink" x="0px" y="0px" viewBox="0 0 1000 1000" style="enable-background:new 0 0 1000 1000;" xml:space="preserve">
	<style type="text/css">
		.st0{opacity:0.4;fill:#EFD49E;animation:flash 5s infinite}
		.st1{fill:#FFFFFF;}
		.st2{fill:#F7B66F;}
		.st3{fill:#EFAA65;}
		.st4{fill:none;stroke:#283035;stroke-width:6;stroke-linecap:round;stroke-linejoin:round;}
		.st5{fill:none;stroke:#283035;stroke-width:6;stroke-linejoin:round;}
		.st6{fill:#E5E5E5;}
		.st7{fill:#CFD1D0;}
		.st8{fill:#D2DCE6;}
		.st9{fill:#FF5C5C;}
		.st10{opacity:0.3;fill:none;stroke:#FFFFFF;stroke-width:6;stroke-linecap:round;stroke-linejoin:round;enable-background:new    ;}
		.st11{opacity:0.3;}
		.st12{fill:#686B6D;}
		.st13{fill:none;stroke:#283035;stroke-width:4;stroke-linecap:round;stroke-linejoin:round;}
		.st14{opacity:0.14;enable-background:new    ;}
		.st15{fill:#353F49;}
		.st16{fill:#EAEEEF;}
		.st17{opacity:0.35;fill:#283035;enable-background:new    ;}
		.st18{fill:none;stroke:#46BB86;stroke-width:3;stroke-miterlimit:10;}
		.st19{fill:none;stroke:#389ABE;stroke-width:3;stroke-miterlimit:10;}
		.st20{fill:none;stroke:#E5C689;stroke-width:3;stroke-miterlimit:10;}
		.st21{fill:none;stroke:#F2F3F4;stroke-width:3;stroke-miterlimit:10;}
		.st22{fill:none;stroke:#FFA49F;stroke-width:3;stroke-miterlimit:10;}
		.st23{fill:none;stroke:#283035;stroke-width:8;stroke-linecap:round;stroke-linejoin:round;transform-origin:18% 0%;animation: rot 2500ms infinite}
		.st24{fill:#EAD57D;}
		.st25{fill:#E5C66E;}
		.st26{fill:#5CBF84;}
		.st27{fill:#4FB277;}
		.st28{fill:#54AF79;}
		.st29{fill:none;stroke:#212728;stroke-linecap:round;stroke-miterlimit:10;}
		.st30{fill:none;stroke:#283035;stroke-width:3;stroke-linecap:round;stroke-linejoin:round;}
		.st31{fill:#EDA762;}
		.st32{fill:#8EAFBF;}
		.st33{fill:none;stroke:#8BAFC1;stroke-width:4;stroke-linecap:round;stroke-linejoin:round;}
		.st34{fill:#3BBC88;}
		.st35{fill:none;stroke:#283035;stroke-width:4.0002;stroke-linecap:round;stroke-linejoin:round;stroke-miterlimit:4.0002;}
		.st36{fill:none;stroke:#283035;stroke-width:3.9982;stroke-linecap:round;stroke-linejoin:round;stroke-miterlimit:3.9982;}
		.st37{display:none;fill:#E5E5E5;}
		.st38{fill:none;stroke:#212728;stroke-width:6;stroke-linecap:round;stroke-linejoin:round;}
		@keyframes flash {
			0%,10%,12%,40%,42%,70%,72%,98%,100%{
				opacity:0.4;
			}
			9.999%,11.999%,39.999%,41.999%,69.999%,71.999%,97.999%,99.999%{
				opacity:0.1;
			}
		} 
		@keyframes rot{
		o%{
		transform:rotateY(0deg)
		}
		50%{
		transform:rotateY(90deg)
		}
		100%{
		transform:rotateY(360deg)
		}
		}
	</style>
	<g>
		<g id="lamp">
			<polygon class="st0" points="814,701.6 196,701.6 427,201.7 583,201.7 		" />
			<ellipse class="st1" cx="505" cy="203.6" rx="24" ry="24" />
			<path class="st2" d="M436.1,209c-4.8,0-8.6-3.9-8.6-8.7c0-0.3,0-0.7,0.1-1c4.7-39.6,37.6-70.3,77.4-70.3s72.8,30.7,77.4,70.3
			c0.6,4.7-2.8,9-7.5,9.6c-0.3,0-0.7,0.1-1,0.1L436.1,209L436.1,209z" />
			<path class="st3" d="M517,129.9L517,129.9c-0.3,0-0.5-0.1-0.8-0.1c-0.9-0.1-1.8-0.3-2.7-0.4c-0.4,0-0.8-0.1-1.3-0.1
			c-0.8-0.1-1.5-0.1-2.3-0.2c-0.4,0-0.9-0.1-1.3-0.1c-1.2-0.1-2.4-0.1-3.6-0.1s-2.4,0-3.6,0.1c-0.5,0-1.1,0.1-1.6,0.1
			c-0.6,0-1.2,0.1-1.8,0.1c-0.7,0.1-1.4,0.1-2.1,0.2c-0.3,0-0.7,0.1-1,0.1c-36,4.8-64.3,34.8-67.5,72.2c-0.3,3.6,2.3,6.7,5.9,7
			c0.2,0,0.4,0,0.6,0h142.5c3.6,0,6.5-2.9,6.5-6.4c0-0.2,0-0.3,0-0.5C579.6,165.2,552.2,135.5,517,129.9z M454,186.9
			c6.9-25.1,25.7-45.2,50.2-53.8c24.6,8.6,43.4,28.7,50.3,53.8c1.6,5.7-1.8,11.6-7.6,13.2c-0.9,0.3-1.9,0.4-2.8,0.4h-79.7
			c-5.9,0-10.8-4.8-10.8-10.7C453.7,188.8,453.8,187.9,454,186.9z" />
			<path class="st4" d="M436.2,209c-4.8,0-8.7-3.9-8.7-8.7c0-0.3,0-0.7,0.1-1c4.7-39.6,37.6-70.2,77.4-70.2s72.7,30.7,77.4,70.2
			c0.6,4.8-2.8,9.1-7.6,9.7c-0.3,0-0.7,0.1-1,0.1H436.2V209z" />
			<line class="st5" x1="505" y1="0" x2="505" y2="129" />
		</g>
		<g id="mouse">
			<path class="st6" d="M721.1,704.9c0.1-16,13.1-28.9,29.2-28.8c15.9,0.1,28.7,12.9,28.8,28.8H721.1z" />
			<path class="st7" d="M750.1,695.7c8.4,0.1,16.4-3.5,22-9.7c-10.4-12.1-28.7-13.5-40.8-3.1c-1.1,1-2.2,2-3.1,3.1
			C733.7,692.3,741.7,695.8,750.1,695.7z" />
			<path class="st4" d="M721.1,704.9c0.1-16,13.1-28.9,29.2-28.8c15.9,0.1,28.7,12.9,28.8,28.8H721.1z" />
		</g>
		<g id="laptop">
			<path class="st8" d="M310.7,435.9h337.8c9.5,0,17.1,7.7,17.1,17.1v222.9l0,0h-372l0,0V453C293.6,443.5,301.3,435.9,310.7,435.9z" />
			<path class="st4" d="M310.7,435.9h337.8c9.5,0,17.1,7.7,17.1,17.1v222.9l0,0h-372l0,0V453C293.6,443.5,301.3,435.9,310.7,435.9z" />
			<rect x="321.6" y="464.1" class="st9" width="316" height="184" />
			<line class="st10" x1="505" y1="618.8" x2="557" y2="618.8" />
			<g class="st11">
				<path class="st1" d="M631.8,561.6c2.1-0.1,3.9,1.2,4.5,3.1v-11.5c-1.1-0.3-2.2-0.5-3.4-0.5h-1.2c-2.5,0-3.8,1.3-3.8,3.8v1.3
				C628,560.3,629.3,561.6,631.8,561.6z" />
				<path class="st1" d="M636.3,616.5c-0.6,2-2.5,3.2-4.5,3.1c-2.5,0-3.8,1.3-3.8,3.8v1.3c0,2.5,1.3,3.8,3.8,3.8h1.2
				c1.1,0,2.3-0.2,3.4-0.5v-11.5H636.3z" />
			</g>
			<rect x="321.6" y="464.1" class="st4" width="316" height="184" />
			<path class="st6" d="M252.5,676h454.1c2.2,0,4,1.8,4,4v4.8c0,11-9,20-20,20H268.5c-11,0-20-9-20-20V680
			C248.5,677.8,250.3,676,252.5,676z" />
			<path class="st7" d="M690.6,695.8H268.5c-9.9,0-18.3-7.3-19.8-17.1c-0.2,0.4-0.2,0.9-0.2,1.3v4.8c0,11,9,20,20,20h422.1
			c11,0,20-9,20-20V680c0-0.4-0.1-0.9-0.2-1.3C709,688.5,700.6,695.8,690.6,695.8z" />
			<path class="st4" d="M252.5,676h454.1c2.2,0,4,1.8,4,4v4.8c0,11-9,20-20,20H268.5c-11,0-20-9-20-20V680
			C248.5,677.8,250.3,676,252.5,676z" />
			<path class="st12" d="M437.6,675.9h84l0,0l0,0c0,4.4-3.6,8-8,8h-68C441.2,683.9,437.6,680.3,437.6,675.9L437.6,675.9L437.6,675.9z
			" />
			<path class="st13" d="M437.6,675.9h84l0,0l0,0c0,4.4-3.6,8-8,8h-68C441.2,683.9,437.6,680.3,437.6,675.9L437.6,675.9L437.6,675.9z
			" />
			<circle class="st12" cx="478.8" cy="449.6" r="8" />
			<circle class="st13" cx="478.8" cy="449.6" r="8" />
			<path class="st14" d="M375,499.8h152c4.4,0,8,3.6,8,8v118c0,4.4-3.6,8-8,8H375c-4.4,0-8-3.6-8-8v-118
			C367,503.4,370.6,499.8,375,499.8z" />
			<path class="st15" d="M367.2,492.8h152c4.4,0,8,3.6,8,8v118c0,4.4-3.6,8-8,8h-152c-4.4,0-8-3.6-8-8v-118
			C359.2,496.4,362.8,492.8,367.2,492.8z" />
			<path class="st13" d="M367.2,492.8h152c4.4,0,8,3.6,8,8v118c0,4.4-3.6,8-8,8h-152c-4.4,0-8-3.6-8-8v-118
			C359.2,496.4,362.8,492.8,367.2,492.8z" />
			<path class="st16" d="M367.2,492.8h152c4.4,0,8,3.6,8,8v12l0,0h-168l0,0v-12C359.2,496.4,362.8,492.8,367.2,492.8z" />
			<path class="st13" d="M367.2,492.8h152c4.4,0,8,3.6,8,8v12l0,0h-168l0,0v-12C359.2,496.4,362.8,492.8,367.2,492.8z" />
			<circle class="st17" cx="373.5" cy="502.8" r="3.1" />
			<circle class="st17" cx="383.3" cy="502.8" r="3.1" />
			<circle class="st17" cx="392.7" cy="502.8" r="3.1" />
			<line class="st18" x1="367" y1="519.8" x2="378" y2="519.8" />
			<line class="st18" x1="382" y1="519.8" x2="412" y2="519.8" />
			<line class="st19" x1="367" y1="527.8" x2="412" y2="527.8" />
			<line class="st20" x1="376" y1="535.8" x2="398" y2="535.8" />
			<line class="st21" x1="402" y1="535.8" x2="426" y2="535.8" />
			<line class="st21" x1="388" y1="543.8" x2="434" y2="543.8" />
			<line class="st22" x1="388" y1="551.8" x2="422" y2="551.8" />
			<line class="st21" x1="376" y1="559.8" x2="426" y2="559.8" />
			<line class="st19" x1="367" y1="566.8" x2="394" y2="566.8" />
			<g class="st11">
				<path class="st1" d="M599.6,605.5c0-4-1.5-6.7-4.6-8.4c-2.2-1.2-3.1-2.1-3.1-4.1v-3.5c0-2.4,1.1-3,3-4.2c3.1-1.3,4.7-4.2,4.7-8.5
				v-7.6c0-6.1,2.2-10.6,5.5-12.5c2.4-1.7,5.3-2.7,8.3-2.8h1.2c2.5,0,3.8,1.3,3.8,3.8v1.3c0,2.4-1.3,3.7-3.8,3.7
				c-3.5,0-5.2,2.5-5.2,7.6v9.4c0.2,4.7-2.4,9-6.6,11.1l-0.8,0.3v0.2c0.9,0.3,1.8,0.7,2.5,1.3c2.2,1.3,4.9,4.5,4.9,10v10.5
				c0,5,1.7,7.5,5.2,7.5c2.5,0,3.8,1.3,3.8,3.8v1.3c0,2.5-1.3,3.8-3.8,3.8h-1.2c-3-0.1-5.8-1.1-8.3-2.8c-3.2-1.9-5.5-6.5-5.5-12.5
				L599.6,605.5L599.6,605.5z" />
			</g>
		</g>
		<g id="cup">
			<polyline class="st23" points="182.6,561.8 190.4,524.4 231.6,515.1 		" />
			<path class="st24" d="M153.5,704.8h49.1c3.5,0,6.5-2.6,6.9-6.1l13.1-102.9h-89.2l13.1,102.9C147,702.2,149.9,704.8,153.5,704.8z" />
			<path class="st25" d="M147,595.8l10.4,95c0.4,4,3.9,7.1,7.9,7.1h44.2l-0.1,0.8c-0.4,3.5-3.4,6.1-6.9,6.1h-49.1
			c-3.5,0-6.5-2.6-6.9-6.1l-13.1-102.9L147,595.8L147,595.8z" />
			<path class="st4" d="M153.5,704.8h49.1c3.5,0,6.5-2.6,6.9-6.1l13.1-102.9h-89.2l13.1,102.9C147,702.2,149.9,704.8,153.5,704.8z" />
			<polygon class="st26" points="219.3,675.2 225.6,625.4 130.4,625.4 136.8,675.2 		" />
			<polygon class="st27" points="219.3,675.2 225.6,625.4 130.4,625.4 136.8,675.2 		" />
			<path class="st26" d="M218.9,669.4l5.3-44h-79.8l4.9,40.5c0.2,2,1.9,3.5,3.9,3.5H218.9z" />
			<polygon class="st4" points="219.3,675.2 225.6,625.4 130.4,625.4 136.8,675.2 		" />
			<path class="st26" d="M228.3,595.8H127.7c-6.1,0-11-4.9-11-11l0,0c0-6.1,4.9-11,11-11h100.7c6.1,0,11,4.9,11,11l0,0
			C239.3,590.8,234.4,595.8,228.3,595.8z" />
			<path class="st27" d="M228.3,595.8H127.7c-6.1,0-11-4.9-11-11l0,0c0-6.1,4.9-11,11-11h100.7c6.1,0,11,4.9,11,11l0,0
			C239.3,590.8,234.4,595.8,228.3,595.8z" />
			<path class="st26" d="M230.7,591H139c-4.8,0-8.6-3.9-8.6-8.6l0,0c0-4.8,3.9-8.6,8.6-8.6h91.7c4.8,0,8.6,3.9,8.6,8.6l0,0
			C239.3,587.2,235.5,591,230.7,591z" />
			<path class="st4" d="M228.3,595.8H127.7c-6.1,0-11-4.9-11-11l0,0c0-6.1,4.9-11,11-11h100.7c6.1,0,11,4.9,11,11l0,0
			C239.3,590.8,234.4,595.8,228.3,595.8z" />
			<polygon class="st26" points="138,573.8 218,573.8 216.4,561.8 139.6,561.8 		" />
			<polygon class="st28" points="139.6,561.8 163.1,561.8 157.5,573.8 138,573.8 		" />
			<polygon class="st4" points="138,573.8 218,573.8 216.4,561.8 139.6,561.8 		" />
			<path class="st29" d="M161.7,650.1" />
			<path class="st30" d="M148.9,653.7l2-1.9c15.6,12.7,38,12.7,53.7,0l2.5,2.4" />
			<path class="st30" d="M171.6,643.6c0-2.4-1.9-4.3-4.3-4.3l0,0l0,0c-2.4,0-4.3,1.9-4.3,4.3l0,0v3.9" />
			<path class="st30" d="M184.4,643.6c0-2.4,1.9-4.3,4.3-4.3l0,0l0,0c2.4,0,4.3,1.9,4.3,4.3l0,0v3.9" />
		</g>
		<g id="checkboard">
			<path class="st6" d="M802.8,574.9h77.8c5,0,9.1,4.1,9.1,9.1v111.8c0,5-4.1,9.1-9.1,9.1h-77.8c-5,0-9.1-4.1-9.1-9.1V584
			C793.7,579,797.8,574.9,802.8,574.9z" />
			<path class="st7" d="M880.6,574.9h-1.2c0.2,0.7,0.3,1.4,0.3,2.1v111.8c0,5-4.1,9.1-9.1,9.1H794c1,4.1,4.6,7,8.8,7h77.8
			c5,0,9.1-4.1,9.1-9.1V584C889.7,579,885.7,574.9,880.6,574.9L880.6,574.9z" />
			<path class="st4" d="M802.8,574.9h77.8c5,0,9.1,4.1,9.1,9.1v111.8c0,5-4.1,9.1-9.1,9.1h-77.8c-5,0-9.1-4.1-9.1-9.1V584
			C793.7,579,797.8,574.9,802.8,574.9z" />
			<path class="st2" d="M857.7,567.3h-8v-3c0-4.4-3.6-8-8-8s-8,3.6-8,8v3h-8c-4.4,0-8,3.6-8,8s3.6,8,8,8h32c4.4,0,8-3.6,8-8
			S862.2,567.3,857.7,567.3z" />
			<path class="st31" d="M861.5,568.3c1.2,4.2-1.3,8.6-5.6,9.8c-0.7,0.2-1.4,0.3-2.1,0.3h-32c-1.3,0-2.6-0.3-3.7-0.9
			c0.9,3.5,4.1,5.9,7.7,5.9h32c4.4,0,8-3.6,8-8C865.7,572.4,864.1,569.6,861.5,568.3z" />
			<path class="st4" d="M857.7,567.3h-8v-3c0-4.4-3.6-8-8-8s-8,3.6-8,8v3h-8c-4.4,0-8,3.6-8,8s3.6,8,8,8h32c4.4,0,8-3.6,8-8
			S862.2,567.3,857.7,567.3z" />
			<circle class="st32" cx="841.7" cy="604" r="8.3" />
			<circle class="st4" cx="841.7" cy="604" r="8.3" />
			<line class="st4" x1="810" y1="629.7" x2="830" y2="629.7" />
			<line class="st4" x1="810" y1="656.8" x2="830" y2="656.8" />
			<line class="st4" x1="810" y1="684" x2="830" y2="684" />
			<polyline class="st33" points="843.2,628.6 848.4,635.5 864,623.8 		" />
			<polyline class="st33" points="843.2,655.8 848.4,662.7 864,651 		" />
			<rect x="894.1" y="631" transform="matrix(0.9905 -0.1378 0.1378 0.9905 -82.7743 130.2179)" class="st34" width="10" height="64" />
			<rect x="894.1" y="631" transform="matrix(0.9905 -0.1378 0.1378 0.9905 -82.7743 130.2179)" class="st35" width="10" height="64" />
			<rect x="890.7" y="620.7" transform="matrix(0.9904 -0.1381 0.1381 0.9904 -77.8541 129.4182)" class="st6" width="6" height="10" />
			<rect x="890.7" y="620.7" transform="matrix(0.9904 -0.1381 0.1381 0.9904 -77.8541 129.4182)" class="st36" width="6" height="10" />
			<path class="st13" d="M908.6,655.5c-1.1-1.8-1.9-3.9-2.3-6c-1.1-5.4,1.6-8.5,0.1-11.6c-0.6-1.2-0.9-2.9-5.3-3.6" />
			<polygon class="st37" points="908.5,693.9 898.6,695.3 904.9,704.5 		" />
			<path class="st31" d="M845.7,559.3v3h3.7c-0.6-2.2-2-4-4-5.1C845.6,557.9,845.7,558.6,845.7,559.3z" />
			<polygon class="st13" points="908.5,693.9 898.6,695.3 904.9,704.5 		" />
		</g>
		<g id="floor">
			<path class="st38" d="M252.9,701" />
			<line class="st4" x1="920.8" y1="704.9" x2="946.5" y2="704.9" />
			<line class="st4" x1="234.3" y1="704.9" x2="909.5" y2="704.9" />
			<line class="st4" x1="114.8" y1="704.9" x2="222.6" y2="704.9" />
			<line class="st4" x1="80.3" y1="704.9" x2="103.5" y2="704.9" />
		</g>
	</g>
</svg>
