<svg width="926" height="646" viewBox="0 0 926 646" fill="none" xmlns="http://www.w3.org/2000/svg">
<g id="percentages 1">
<g clip-path="url(#clip0)">
<g id="bricks">
<path id="Vector" d="M519.997 21.5H379.997V23.5H519.997V21.5Z" fill="#F2F2F2"/>
<path id="Vector_2" d="M419.997 3.5H417.997V22H419.997V3.5Z" fill="#F2F2F2"/>
<path id="Vector_3" d="M480.997 3.5H478.997V22H480.997V3.5Z" fill="#F2F2F2"/>
<path id="Vector_4" d="M745.997 505.5H605.997V507.5H745.997V505.5Z" fill="#F2F2F2"/>
<path id="Vector_5" d="M645.997 487.5H643.997V506H645.997V487.5Z" fill="#F2F2F2"/>
<path id="Vector_6" d="M706.997 487.5H704.997V506H706.997V487.5Z" fill="#F2F2F2"/>
<path id="Vector_7" d="M752.997 200.5H612.997V202.5H752.997V200.5Z" fill="#F2F2F2"/>
<path id="Vector_8" d="M652.997 182.5H650.997V201H652.997V182.5Z" fill="#F2F2F2"/>
<path id="Vector_9" d="M713.997 182.5H711.997V201H713.997V182.5Z" fill="#F2F2F2"/>
<path id="Vector_10" d="M752.997 128.5H612.997V130.5H752.997V128.5Z" fill="#F2F2F2"/>
<path id="Vector_11" d="M652.997 110.5H650.997V129H652.997V110.5Z" fill="#F2F2F2"/>
<path id="Vector_12" d="M713.997 110.5H711.997V129H713.997V110.5Z" fill="#F2F2F2"/>
<path id="Vector_13" d="M445.997 138.5H305.997V140.5H445.997V138.5Z" fill="#F2F2F2"/>
<path id="Vector_14" d="M345.997 120.5H343.997V139H345.997V120.5Z" fill="#F2F2F2"/>
<path id="Vector_15" d="M406.997 120.5H404.997V139H406.997V120.5Z" fill="#F2F2F2"/>
<path id="Vector_16" d="M343.997 91.5H203.997V93.5H343.997V91.5Z" fill="#F2F2F2"/>
<path id="Vector_17" d="M243.997 73.5H241.997V92H243.997V73.5Z" fill="#F2F2F2"/>
<path id="Vector_18" d="M304.997 73.5H302.997V92H304.997V73.5Z" fill="#F2F2F2"/>
<path id="Vector_19" d="M280.997 276.5H140.997V278.5H280.997V276.5Z" fill="#F2F2F2"/>
<path id="Vector_20" d="M180.997 258.5H178.997V277H180.997V258.5Z" fill="#F2F2F2"/>
<path id="Vector_21" d="M241.997 258.5H239.997V277H241.997V258.5Z" fill="#F2F2F2"/>
<path id="Vector_22" d="M210.997 480.5H70.997V482.5H210.997V480.5Z" fill="#F2F2F2"/>
<path id="Vector_23" d="M110.997 462.5H108.997V481H110.997V462.5Z" fill="#F2F2F2"/>
<path id="Vector_24" d="M171.997 462.5H169.997V481H171.997V462.5Z" fill="#F2F2F2"/>
<path id="Vector_25" d="M872.997 396.5H732.997V398.5H872.997V396.5Z" fill="#F2F2F2"/>
<path id="Vector_26" d="M772.997 378.5H770.997V397H772.997V378.5Z" fill="#F2F2F2"/>
<path id="Vector_27" d="M833.997 378.5H831.997V397H833.997V378.5Z" fill="#F2F2F2"/>
<path id="Vector_28" d="M831.997 268.5H691.997V270.5H831.997V268.5Z" fill="#F2F2F2"/>
<path id="Vector_29" d="M793.997 270H791.997V288.5H793.997V270Z" fill="#F2F2F2"/>
<path id="Vector_30" d="M732.997 270H730.997V288.5H732.997V270Z" fill="#F2F2F2"/>
<path id="Vector_31" d="M153.997 118.5H13.997V120.5H153.997V118.5Z" fill="#F2F2F2"/>
<path id="Vector_32" d="M115.997 120H113.997V138.5H115.997V120Z" fill="#F2F2F2"/>
<path id="Vector_33" d="M54.997 120H52.997V138.5H54.997V120Z" fill="#F2F2F2"/>
<path id="Vector_34" d="M162.997 380.5H22.997V382.5H162.997V380.5Z" fill="#F2F2F2"/>
<path id="Vector_35" d="M124.997 382H122.997V400.5H124.997V382Z" fill="#F2F2F2"/>
<path id="Vector_36" d="M63.997 382H61.997V400.5H63.997V382Z" fill="#F2F2F2"/>
<path id="Vector_37" d="M603.997 53.5H463.997V55.5H603.997V53.5Z" fill="#F2F2F2"/>
<path id="Vector_38" d="M565.997 55H563.997V73.5H565.997V55Z" fill="#F2F2F2"/>
<path id="Vector_39" d="M504.997 55H502.997V73.5H504.997V55Z" fill="#F2F2F2"/>
<path id="Vector_40" d="M210.997 192.5H70.997V194.5H210.997V192.5Z" fill="#F2F2F2"/>
<path id="Vector_41" d="M110.997 174.5H108.997V193H110.997V174.5Z" fill="#F2F2F2"/>
<path id="Vector_42" d="M171.997 174.5H169.997V193H171.997V174.5Z" fill="#F2F2F2"/>
</g>
<g id="leafs" style="fill:#fff;stroke:#283035;stroke-width:6;stroke-linecap: round;">
<path id="Vector_43" d="M191.255 602.167C198.169 627.726 221.851 643.555 221.851 643.555C221.851 643.555 234.323 617.945 227.409 592.387C220.495 566.829 196.813 551 196.813 551C196.813 551 184.341 576.609 191.255 602.167Z" fill="#4FB277"/>
<path id="Vector_44" d="M201.415 596.675C220.387 615.143 222.704 643.534 222.704 643.534C222.704 643.534 194.261 641.981 175.289 623.512C156.317 605.044 154 576.653 154 576.653C154 576.653 182.443 578.206 201.415 596.675Z" fill="#5CBF84"/>
</g>
<path id="surface" d="M925.497 643H16.497V645H925.497V643Z" style="fill:none;stroke:#283035;stroke-width:6;stroke-linejoin:round;"/>
<g id="board">
<path id="bg" d="M233.497 173V644H669.497V173H233.497ZM451.497 207C448.53 207 445.63 206.12 443.163 204.472C440.697 202.824 438.774 200.481 437.639 197.74C436.504 194.999 436.206 191.983 436.785 189.074C437.364 186.164 438.793 183.491 440.89 181.393C442.988 179.296 445.661 177.867 448.571 177.288C451.48 176.709 454.496 177.006 457.237 178.142C459.978 179.277 462.321 181.2 463.969 183.666C465.617 186.133 466.497 189.033 466.497 192C466.497 195.978 464.917 199.794 462.104 202.607C459.291 205.42 455.475 207 451.497 207V207Z" style="fill:#fff;stroke:#283035;stroke-width:6;stroke-linecap: round;"/>  
<!-- 3D4156 -->
<g id="bars">
<path id="Vector_45" d="M510.997 271.5H281.997C280.14 271.5 278.36 270.763 277.047 269.45C275.735 268.137 274.997 266.357 274.997 264.5C274.997 262.643 275.735 260.863 277.047 259.55C278.36 258.238 280.14 257.5 281.997 257.5H510.997C512.853 257.5 514.634 258.238 515.947 259.55C517.26 260.863 517.997 262.643 517.997 264.5C517.997 266.357 517.26 268.137 515.947 269.45C514.634 270.763 512.853 271.5 510.997 271.5V271.5Z" fill="#F2F2F2"/>
<path id="Vector_46" d="M510.997 343.5H281.997C280.14 343.5 278.36 342.763 277.047 341.45C275.735 340.137 274.997 338.357 274.997 336.5C274.997 334.643 275.735 332.863 277.047 331.55C278.36 330.238 280.14 329.5 281.997 329.5H510.997C512.853 329.5 514.634 330.238 515.947 331.55C517.26 332.863 517.997 334.643 517.997 336.5C517.997 338.357 517.26 340.137 515.947 341.45C514.634 342.763 512.853 343.5 510.997 343.5Z" fill="#F2F2F2"/>
<path id="Vector_47" d="M510.997 415.5H281.997C280.14 415.5 278.36 414.763 277.047 413.45C275.735 412.137 274.997 410.357 274.997 408.5C274.997 406.643 275.735 404.863 277.047 403.55C278.36 402.238 280.14 401.5 281.997 401.5H510.997C512.853 401.5 514.634 402.238 515.947 403.55C517.26 404.863 517.997 406.643 517.997 408.5C517.997 410.357 517.26 412.137 515.947 413.45C514.634 414.763 512.853 415.5 510.997 415.5Z" fill="#F2F2F2"/>
<path id="Vector_48" d="M510.997 487.5H281.997C280.14 487.5 278.36 486.763 277.047 485.45C275.735 484.137 274.997 482.357 274.997 480.5C274.997 478.643 275.735 476.863 277.047 475.55C278.36 474.238 280.14 473.5 281.997 473.5H510.997C512.853 473.5 514.634 474.238 515.947 475.55C517.26 476.863 517.997 478.643 517.997 480.5C517.997 482.357 517.26 484.137 515.947 485.45C514.634 486.763 512.853 487.5 510.997 487.5V487.5Z" fill="#F2F2F2"/>
<path id="Vector_49" d="M510.997 559.5H281.997C280.14 559.5 278.36 558.763 277.047 557.45C275.735 556.137 274.997 554.357 274.997 552.5C274.997 550.643 275.735 548.863 277.047 547.55C278.36 546.238 280.14 545.5 281.997 545.5H510.997C512.853 545.5 514.634 546.238 515.947 547.55C517.26 548.863 517.997 550.643 517.997 552.5C517.997 554.357 517.26 556.137 515.947 557.45C514.634 558.763 512.853 559.5 510.997 559.5Z" fill="#F2F2F2"/>
</g>
<g id="knobs">
<path id="Vector_50" d="M605.997 257.5H603.997V271.5H605.997V257.5Z" fill="#fd746c"/>
<path id="Vector_51" d="M620.997 272.5C619.415 272.5 617.868 272.031 616.552 271.152C615.237 270.273 614.211 269.023 613.606 267.561C613 266.1 612.842 264.491 613.151 262.939C613.459 261.387 614.221 259.962 615.34 258.843C616.459 257.724 617.884 256.962 619.436 256.654C620.988 256.345 622.597 256.503 624.058 257.109C625.52 257.714 626.77 258.74 627.649 260.055C628.528 261.371 628.997 262.918 628.997 264.5C628.994 266.621 628.151 268.654 626.651 270.154C625.151 271.654 623.118 272.498 620.997 272.5V272.5ZM620.997 258.5C619.81 258.5 618.65 258.852 617.664 259.511C616.677 260.17 615.908 261.108 615.454 262.204C615 263.3 614.881 264.507 615.112 265.671C615.344 266.834 615.915 267.904 616.754 268.743C617.593 269.582 618.662 270.153 619.826 270.385C620.99 270.616 622.197 270.497 623.293 270.043C624.389 269.589 625.326 268.82 625.986 267.833C626.645 266.847 626.997 265.687 626.997 264.5C626.995 262.909 626.362 261.384 625.238 260.259C624.113 259.134 622.588 258.502 620.997 258.5V258.5Z" fill="#fd746c"/>
<path id="Vector_52" d="M605.997 329.5H603.997V343.5H605.997V329.5Z" fill="#fd746c"/>
<path id="Vector_53" d="M620.997 344.5C619.415 344.5 617.868 344.031 616.552 343.152C615.237 342.273 614.211 341.023 613.606 339.561C613 338.1 612.842 336.491 613.151 334.939C613.459 333.387 614.221 331.962 615.34 330.843C616.459 329.724 617.884 328.962 619.436 328.654C620.988 328.345 622.597 328.503 624.058 329.109C625.52 329.714 626.77 330.74 627.649 332.055C628.528 333.371 628.997 334.918 628.997 336.5C628.994 338.621 628.151 340.654 626.651 342.154C625.151 343.654 623.118 344.498 620.997 344.5ZM620.997 330.5C619.81 330.5 618.65 330.852 617.664 331.511C616.677 332.17 615.908 333.108 615.454 334.204C615 335.3 614.881 336.507 615.112 337.671C615.344 338.834 615.915 339.904 616.754 340.743C617.593 341.582 618.662 342.153 619.826 342.385C620.99 342.616 622.197 342.497 623.293 342.043C624.389 341.589 625.326 340.82 625.986 339.833C626.645 338.847 626.997 337.687 626.997 336.5C626.995 334.909 626.362 333.384 625.238 332.259C624.113 331.134 622.588 330.502 620.997 330.5V330.5Z" fill="#fd746c"/>
<path id="Vector_54" d="M605.997 401.5H603.997V415.5H605.997V401.5Z" fill="#fd746c"/>
<path id="Vector_55" d="M620.997 416.5C619.415 416.5 617.868 416.031 616.552 415.152C615.237 414.273 614.211 413.023 613.606 411.561C613 410.1 612.842 408.491 613.151 406.939C613.459 405.387 614.221 403.962 615.34 402.843C616.459 401.724 617.884 400.962 619.436 400.654C620.988 400.345 622.597 400.503 624.058 401.109C625.52 401.714 626.77 402.74 627.649 404.055C628.528 405.371 628.997 406.918 628.997 408.5C628.994 410.621 628.151 412.654 626.651 414.154C625.151 415.654 623.118 416.498 620.997 416.5V416.5ZM620.997 402.5C619.81 402.5 618.65 402.852 617.664 403.511C616.677 404.17 615.908 405.108 615.454 406.204C615 407.3 614.881 408.507 615.112 409.671C615.344 410.834 615.915 411.904 616.754 412.743C617.593 413.582 618.662 414.153 619.826 414.385C620.99 414.616 622.197 414.497 623.293 414.043C624.389 413.589 625.326 412.82 625.986 411.833C626.645 410.847 626.997 409.687 626.997 408.5C626.995 406.909 626.362 405.384 625.238 404.259C624.113 403.134 622.588 402.502 620.997 402.5V402.5Z" fill="#fd746c"/>
<path id="Vector_56" d="M605.997 473.5H603.997V487.5H605.997V473.5Z" fill="#fd746c"/>
<path id="Vector_57" d="M620.997 488.5C619.415 488.5 617.868 488.031 616.552 487.152C615.237 486.273 614.211 485.023 613.606 483.561C613 482.1 612.842 480.491 613.151 478.939C613.459 477.387 614.221 475.962 615.34 474.843C616.459 473.724 617.884 472.962 619.436 472.654C620.988 472.345 622.597 472.503 624.058 473.109C625.52 473.714 626.77 474.74 627.649 476.055C628.528 477.371 628.997 478.918 628.997 480.5C628.994 482.621 628.151 484.654 626.651 486.154C625.151 487.654 623.118 488.498 620.997 488.5V488.5ZM620.997 474.5C619.81 474.5 618.65 474.852 617.664 475.511C616.677 476.17 615.908 477.108 615.454 478.204C615 479.3 614.881 480.507 615.112 481.671C615.344 482.834 615.915 483.904 616.754 484.743C617.593 485.582 618.662 486.153 619.826 486.385C620.99 486.616 622.197 486.497 623.293 486.043C624.389 485.589 625.326 484.82 625.986 483.833C626.645 482.847 626.997 481.687 626.997 480.5C626.995 478.909 626.362 477.384 625.238 476.259C624.113 475.134 622.588 474.502 620.997 474.5Z" fill="#fd746c"/>
<path id="Vector_58" d="M605.997 545.5H603.997V559.5H605.997V545.5Z" fill="#fd746c"/>
<path id="Vector_59" d="M620.997 560.5C619.415 560.5 617.868 560.031 616.552 559.152C615.237 558.273 614.211 557.023 613.606 555.561C613 554.1 612.842 552.491 613.151 550.939C613.459 549.387 614.221 547.962 615.34 546.843C616.459 545.724 617.884 544.962 619.436 544.654C620.988 544.345 622.597 544.503 624.058 545.109C625.52 545.714 626.77 546.74 627.649 548.055C628.528 549.371 628.997 550.918 628.997 552.5C628.994 554.621 628.151 556.654 626.651 558.154C625.151 559.654 623.118 560.498 620.997 560.5V560.5ZM620.997 546.5C619.81 546.5 618.65 546.852 617.664 547.511C616.677 548.17 615.908 549.108 615.454 550.204C615 551.3 614.881 552.507 615.112 553.671C615.344 554.834 615.915 555.904 616.754 556.743C617.593 557.582 618.662 558.153 619.826 558.385C620.99 558.616 622.197 558.497 623.293 558.043C624.389 557.589 625.326 556.82 625.986 555.833C626.645 554.847 626.997 553.687 626.997 552.5C626.995 550.909 626.362 549.384 625.238 548.259C624.113 547.134 622.588 546.502 620.997 546.5Z" fill="#fd746c"/>
<path id="Vector_60" d="M620.997 268.5C623.206 268.5 624.997 266.709 624.997 264.5C624.997 262.291 623.206 260.5 620.997 260.5C618.788 260.5 616.997 262.291 616.997 264.5C616.997 266.709 618.788 268.5 620.997 268.5Z" fill="#fd746c"/>
<path id="Vector_61" d="M620.997 484.5C623.206 484.5 624.997 482.709 624.997 480.5C624.997 478.291 623.206 476.5 620.997 476.5C618.788 476.5 616.997 478.291 616.997 480.5C616.997 482.709 618.788 484.5 620.997 484.5Z" fill="#fd746c"/>
<path id="Vector_62" d="M620.997 556.5C623.206 556.5 624.997 554.709 624.997 552.5C624.997 550.291 623.206 548.5 620.997 548.5C618.788 548.5 616.997 550.291 616.997 552.5C616.997 554.709 618.788 556.5 620.997 556.5Z" fill="#fd746c"/>
</g>
<g id="hook">
<path id="Vector_63" d="M451.497 199C455.363 199 458.497 195.866 458.497 192C458.497 188.134 455.363 185 451.497 185C447.631 185 444.497 188.134 444.497 192C444.497 195.866 447.631 199 451.497 199Z" fill="#3F3D56"/>
<path id="Vector_64" d="M451.497 14C455.363 14 458.497 10.866 458.497 7C458.497 3.13401 455.363 0 451.497 0C447.631 0 444.497 3.13401 444.497 7C444.497 10.866 447.631 14 451.497 14Z" fill="#3F3D56"/>
<path id="Vector_65" d="M452.497 6.99994H450.497V192H452.497V6.99994Z" fill="#3F3D56"/>
</g>
<g id="indicators">
<path id="Vector_66" d="M470.997 271.5H280.997C279.14 271.5 277.36 270.763 276.047 269.45C274.735 268.137 273.997 266.357 273.997 264.5C273.997 262.643 274.735 260.863 276.047 259.55C277.36 258.238 279.14 257.5 280.997 257.5H470.997C472.853 257.5 474.634 258.238 475.947 259.55C477.26 260.863 477.997 262.643 477.997 264.5C477.997 266.357 477.26 268.137 475.947 269.45C474.634 270.763 472.853 271.5 470.997 271.5V271.5Z" fill="#5CBF84"/>
<path id="Vector_67" d="M411.997 343.5H280.997C279.14 343.5 277.36 342.763 276.047 341.45C274.735 340.137 273.997 338.357 273.997 336.5C273.997 334.643 274.735 332.863 276.047 331.55C277.36 330.238 279.14 329.5 280.997 329.5H411.997C413.853 329.5 415.634 330.238 416.947 331.55C418.26 332.863 418.997 334.643 418.997 336.5C418.997 338.357 418.26 340.137 416.947 341.45C415.634 342.763 413.853 343.5 411.997 343.5Z" fill="#5CBF84"/>
<path id="Vector_68" d="M339.997 415.5H280.997C279.14 415.5 277.36 414.763 276.047 413.45C274.735 412.137 273.997 410.357 273.997 408.5C273.997 406.643 274.735 404.863 276.047 403.55C277.36 402.238 279.14 401.5 280.997 401.5H339.997C341.854 401.5 343.634 402.238 344.947 403.55C346.26 404.863 346.997 406.643 346.997 408.5C346.997 410.357 346.26 412.137 344.947 413.45C343.634 414.763 341.854 415.5 339.997 415.5V415.5Z" fill="#5CBF84"/>
<path id="Vector_69" d="M488.997 487.5H280.997C279.14 487.5 277.36 486.763 276.047 485.45C274.735 484.137 273.997 482.357 273.997 480.5C273.997 478.643 274.735 476.863 276.047 475.55C277.36 474.238 279.14 473.5 280.997 473.5H488.997C490.853 473.5 492.634 474.238 493.947 475.55C495.26 476.863 495.997 478.643 495.997 480.5C495.997 482.357 495.26 484.137 493.947 485.45C492.634 486.763 490.853 487.5 488.997 487.5V487.5Z" fill="#5CBF84"/>
<path id="Vector_70" d="M442.997 559.5H280.997C279.14 559.5 277.36 558.763 276.047 557.45C274.735 556.137 273.997 554.357 273.997 552.5C273.997 550.643 274.735 548.863 276.047 547.55C277.36 546.238 279.14 545.5 280.997 545.5H442.997C444.853 545.5 446.634 546.238 447.947 547.55C449.26 548.863 449.997 550.643 449.997 552.5C449.997 554.357 449.26 556.137 447.947 557.45C446.634 558.763 444.853 559.5 442.997 559.5V559.5Z" fill="#5CBF84"/>
</g>
</g>
</g>
</g>
<defs>
<clipPath id="clip0">
<rect width="925.497" height="645.184" fill="white"/>
</clipPath>
</defs>
</svg>
